<?xml version="1.0" encoding="iso-8859-1"?>
<!-- Uploaded to: SVG Repo, www.svgrepo.com, Generator: SVG Repo Mixer Tools -->
<svg version="1.1" id="Layer_1" xmlns="http://www.w3.org/2000/svg" xmlns:xlink="http://www.w3.org/1999/xlink" 
	 viewBox="0 0 512 512" xml:space="preserve">
<path style="fill:#E5E5E5;" d="M256,0C114.616,0,0,114.616,0,256s114.616,256,256,256s256-114.616,256-256S397.384,0,256,0z"/>
<path d="M320.968,424H191.032c-23.096,0-42-18.896-42-42V130c0-23.096,18.904-42,42-42h129.936c23.104,0,42,18.904,42,42v252
	C362.968,405.104,344.072,424,320.968,424z"/>
<g>
	<rect x="165.44" y="127.648" style="fill:#FFFFFF;" width="183.752" height="247.352"/>
	<circle style="fill:#FFFFFF;" cx="256" cy="107.8" r="7.872"/>
	<path style="fill:#FFFFFF;" d="M273.808,408.432H238.2c-4.92,0-8.904-3.984-8.904-8.904s3.984-8.904,8.904-8.904h35.608
		c4.92,0,8.904,3.984,8.904,8.904S278.728,408.432,273.808,408.432z"/>
</g>
<g>
	<rect x="187.232" y="316.504" style="fill:#FF583E;" width="137.528" height="8"/>
	<rect x="202.496" y="334.16" style="fill:#FF583E;" width="107.016" height="8"/>
</g>
<circle style="fill:#F00000;" cx="256" cy="221.44" r="72.64"/>
<path style="fill:#FFFFFF;" d="M249.304,273.16v-11.984c-8.464-0.384-16.664-2.656-21.464-5.432l3.792-14.776
	c5.304,2.896,12.752,5.552,20.96,5.552c7.2,0,12.12-2.776,12.12-7.824c0-4.8-4.04-7.832-13.384-10.992
	C237.816,223.16,228.6,216.848,228.6,204.6c0-11.112,7.832-19.824,21.344-22.472v-12h12.368v11.112
	c8.464,0.384,14.144,2.136,18.312,4.16l-3.664,14.28c-3.28-1.384-9.088-4.296-18.184-4.296c-8.208,0-10.856,3.536-10.856,7.072
	c0,4.16,4.424,6.816,15.152,10.856c15.024,5.304,21.088,12.248,21.088,23.616c0,11.24-7.96,20.832-22.472,23.36v12.872H249.304z"/>
</svg>